<?xml version="1.0" encoding="UTF-8"?><svg id="a" xmlns="http://www.w3.org/2000/svg" viewBox="0 0 150 150"><defs><style>.b{fill:#18bfff;}.c{fill:#f82b60;}.d{fill:none;}.e{fill:#cb0348;}.f{fill:#fcb400;}</style></defs><path class="d" d="M0,0H150V150H0V0Z"/><path class="f" d="M67.31,18.75L15.08,40.36c-2.9,1.2-2.87,5.33,.05,6.49l52.44,20.8c4.61,1.83,9.74,1.83,14.35,0l52.45-20.8c2.92-1.16,2.95-5.28,.05-6.48l-52.23-21.61c-4.76-1.97-10.12-1.97-14.88,0"/><path class="b" d="M79.4,79v51.96c0,2.47,2.49,4.16,4.79,3.25l58.44-22.68c1.33-.53,2.21-1.82,2.21-3.25V56.32c0-2.47-2.49-4.16-4.79-3.25l-58.44,22.68c-1.33,.53-2.21,1.82-2.21,3.25"/><path class="c" d="M10.04,108.45c-2.32,1.12-5.28-.57-5.28-3.15V56.54c.01-1.32,.93-2.38,2.01-3.01,.87-.52,2.12-.67,3.18-.25l55.52,22c2.82,1.12,3.04,5.07,.29,6.4,0,0-43.16,20.71-55.72,26.77Z"/><path class="e" d="M48.38,90.02L5.87,54.19c1.03-1.03,2.6-1.48,4.07-.91l55.52,22c2.82,1.12,3.04,5.07,.29,6.4l-17.37,8.34Z"/></svg>