<svg enable-background="new 0 0 120 120" height="120" viewBox="0 0 120 120" width="120" xmlns="http://www.w3.org/2000/svg"><path d="m118.27 98.503v-.026s-22.666-22.64-22.68-22.651c-1.797-1.798-4.671-1.759-6.439.012l-10.433 10.476c-4.056 4.057-9.286.457-19.325-7.729-6.642-5.416-14.284-12.699-20.91-20.91-4.65-5.761-8.762-11.811-4.514-16.058.011-.011 10.476-10.449 10.474-10.46l.008-.022c1.878-1.878 1.696-4.755-.019-6.472v-.026s-23.321-23.292-23.334-23.306c-1.797-1.797-4.67-1.757-6.439.012l-10.51 10.51c-4.33 5.419-13.953 31.246 27.302 73.534 43.46 44.551 71.504 35.021 76.332 29.994 0 0 10.499-10.375 10.499-10.385l.009-.021c1.878-1.879 1.693-4.754-.021-6.472z"/></svg>